Patient5_TMGait_0pt45_1_left_06_GRF.mot
version=1
nRows=39
nColumns=19
inDegrees=no
endheader
time	F1x	F1y	F1z	M1x	M1y	M1z	F2x	F2y	F2z	M2x	M2y	M2z	EC1x	EC1y	EC1z	EC2x	EC2y	EC2z
8.54	11.6698	67.1657	-9.4132	-26.81	10.9577	46.9421	-29.7563	832.4668	-18.8826	352.174	30.3981	853.8629	-0.0592	0.0182	-0.0073	-0.0462	0.0165	0.9585
8.5564	6.459	58.3876	-4.9102	-23.9237	5.8006	43.9116	-35.6846	856.3436	-28.6916	362.1088	42.9865	870.831	-0.0592	0.0182	-0.0073	-0.0462	0.0165	0.9585
8.5729	2.7631	49.0233	-1.7164	-20.7512	2.1899	39.4923	-39.3025	877.3105	-36.3531	370.8464	52.2658	884.3846	-0.0592	0.0182	-0.0073	-0.0462	0.0165	0.9585
8.5893	0.91884	40.1533	-0.028882	-17.6097	0.38408	34.3088	-40.4393	890.3514	-41.5468	376.2053	57.7975	890.0983	-0.0592	0.0182	-0.0073	-0.0462	0.0165	0.9585
8.6057	0.48573	32.3778	0.46403	-14.6727	-0.007471	28.9578	-39.4899	892.6037	-44.7202	376.9084	60.2136	885.487	-0.0592	0.0182	-0.0073	-0.0462	0.0165	0.9585
8.6221	0.97499	25.7196	0.20208	-11.9638	0.5061	23.7466	-37.0203	884.1816	-46.4172	372.977	60.3507	870.8413	-0.0592	0.0182	-0.0073	-0.0462	0.0165	0.9585
8.6386	1.8997	20.0443	-0.36551	-9.4918	1.3877	18.869	-33.437	867.9156	-47.1012	365.6336	58.9007	848.9522	-0.0592	0.0182	-0.0073	-0.0462	0.0165	0.9585
8.655	2.7888	15.2663	-0.92244	-7.2948	2.2019	14.4965	-28.9649	848.1323	-47.1593	356.7573	56.3895	823.9795	-0.0592	0.0182	-0.0073	-0.0462	0.0165	0.9585
8.6714	3.343	11.3611	-1.2945	-5.4232	2.7023	10.7989	-23.7728	829.0863	-46.8696	348.1966	53.203	799.9481	-0.0592	0.0182	-0.0073	-0.0462	0.0165	0.9585
8.6879	3.491	8.2888	-1.4005	-3.9047	2.8055	7.87	-18.1056	813.9529	-46.4531	341.3249	49.7127	779.8153	-0.0592	0.0182	-0.0073	-0.0462	0.0165	0.9585
8.7043	3.2948	5.9641	-1.2769	-2.7309	2.5719	5.6779	-12.3398	804.5192	-46.0787	336.906	46.2925	765.2069	-0.0592	0.0182	-0.0073	-0.0462	0.0165	0.9585
8.7207	2.8569	4.2482	-0.99949	-1.8556	2.1031	4.0779	-6.9107	801.2314	-45.7957	335.1314	43.2079	756.4893	-0.0592	0.0182	-0.0073	-0.0462	0.0165	0.9585
8.7371	2.308	2.9294	-0.61758	-1.1963	1.4814	2.8311	-2.1097	803.4888	-45.5381	335.751	40.5411	753.0291	-0.0592	0.0182	-0.0073	-0.0462	0.0165	0.9585
8.7536	1.7611	1.7372	-0.17432	-0.64128	0.78168	1.6546	2.0539	810.0077	-45.1979	338.2236	38.1908	753.558	-0.0592	0.0182	-0.0073	-0.0462	0.0165	0.9585
8.77	1.2526	0.37984	0.31547	-0.062594	0.031477	0.25954	5.8305	819.1357	-44.746	341.8416	35.996	756.467	-0.0592	0.0182	-0.0073	-0.0462	0.0165	0.9585
8.7864	0.77507	-1.3726	0.84765	0.64845	-0.75717	-1.596	9.618	829.2505	-44.2831	345.8976	33.8412	760.1688	-0.0592	0.0182	-0.0073	-0.0462	0.0165	0.9585
8.8029	0.30992	-3.5836	1.3711	1.5299	-1.5227	-3.9874	13.7744	839.1703	-43.9354	349.8675	31.6608	763.502	-0.0592	0.0182	-0.0073	-0.0462	0.0165	0.9585
8.8193	-0.16639	-5.9609	1.7606	2.4712	-2.1241	-6.5836	18.4238	848.3191	-43.7267	353.4849	29.4104	765.933	-0.0592	0.0182	-0.0073	-0.0462	0.0165	0.9585
8.8357	-0.63749	-7.6525	1.7545	3.1352	-2.2574	-8.4503	23.3758	856.5118	-43.5924	356.6542	27.1123	767.3914	-0.0592	0.0182	-0.0073	-0.0462	0.0165	0.9585
8.8521	-0.9716	-7.0683	0.92323	2.886	-1.3851	-7.8492	28.149	863.5495	-43.4184	359.2765	24.874	767.9011	-0.0592	0.0182	-0.0073	-0.0462	0.0165	0.9585
8.8686	-0.89725	-1.7801	-1.2886	0.75068	1.2377	-2.0921	32.1162	868.8787	-43.1095	361.0992	22.8815	767.2209	-0.0592	0.0182	-0.0073	-0.0462	0.0165	0.9585
8.885	-0.0043513	11.3519	-5.4785	-4.5223	6.4637	12.3278	34.6863	871.3343	-42.6938	361.6112	21.3947	764.575	-0.0592	0.0182	-0.0073	-0.0462	0.0165	0.9585
8.9014	2.2308	35.5787	-12.0402	-14.2131	14.9672	39.0837	35.5042	869.1209	-42.2426	360.0503	20.6029	758.5861	-0.0592	0.0182	-0.0073	-0.0462	0.0165	0.9585
8.9179	6.1498	73.0555	-20.701	-29.14	26.5966	80.645	34.5475	860.1563	-41.7791	355.5592	20.5233	747.5585	-0.0592	0.0182	-0.0073	-0.0462	0.0165	0.9585
8.9343	10.6555	123.3092	-30.0048	-49.0231	39.2865	136.5723	32.1189	842.618	-41.1954	347.4193	20.9424	729.9084	-0.0592	0.0182	-0.0073	-0.0462	0.0165	0.9585
8.9507	12.2806	181.5477	-36.6551	-71.8076	48.0042	201.7398	28.7589	815.2691	-40.2706	335.1914	21.4623	704.4599	-0.0592	0.0182	-0.0073	-0.0462	0.0165	0.9585
8.9671	8.8444	240.2126	-37.3162	-94.3902	48.133	268.0348	25.0787	777.613	-38.7656	318.7641	21.6535	670.6299	-0.0592	0.0182	-0.0073	-0.0462	0.0165	0.9585
8.9836	1.8562	292.678	-31.3757	-114.203	39.4603	328.0228	21.5875	730.0444	-36.4946	298.3902	21.1844	628.5966	-0.0592	0.0182	-0.0073	-0.0462	0.0165	0.9585
9	-6.2528	335.9843	-20.9878	-130.2652	25.3496	377.9137	18.577	673.871	-33.3772	274.6818	19.8906	579.3562	-0.0592	0.0182	-0.0073	-0.0462	0.0165	0.9585
9.0164	-13.8885	372.4726	-9.306	-143.7084	9.94	419.8773	16.1151	611.1578	-29.4054	248.5291	17.7512	524.6289	-0.0592	0.0182	-0.0073	-0.0462	0.0165	0.9585
9.0329	-20.484	406.9705	0.59645	-156.6083	-3.1386	459.2205	14.0135	544.4024	-24.6984	220.9621	14.9355	466.5992	-0.0592	0.0182	-0.0073	-0.0462	0.0165	0.9585
9.0493	-25.9472	442.9224	7.0054	-170.4276	-11.9196	499.7513	11.9515	476.3354	-19.4597	193.0797	11.7132	407.6935	-0.0592	0.0182	-0.0073	-0.0462	0.0165	0.9585
9.0657	-30.1839	481.4413	10.1054	-185.5764	-16.5483	542.5372	9.6181	409.7157	-13.9822	165.9675	8.4109	350.357	-0.0592	0.0182	-0.0073	-0.0462	0.0165	0.9585
9.0821	-33.2134	522.2757	11.397	-201.8006	-18.6714	587.1497	6.8645	347.0068	-8.7117	140.568	5.4091	296.7023	-0.0592	0.0182	-0.0073	-0.0462	0.0165	0.9585
9.0986	-35.4427	564.5048	12.7088	-218.5377	-20.4487	632.5654	3.7849	290.0423	-4.1991	117.5554	3.0776	248.2182	-0.0592	0.0182	-0.0073	-0.0462	0.0165	0.9585
9.115	-37.2733	607.2089	15.1745	-235.2894	-23.2983	677.7706	0.60699	239.8909	-0.92721	97.304	1.698	205.6926	-0.0592	0.0182	-0.0073	-0.0462	0.0165	0.9585
9.1314	-38.9152	649.8766	18.8801	-251.8249	-27.4085	722.1811	-2.4939	196.9179	0.86023	79.9246	1.406	169.3105	-0.0592	0.0182	-0.0073	-0.0462	0.0165	0.9585
9.1479	-40.4273	691.9571	23.1176	-267.9834	-32.0338	765.2112	-5.493	160.9291	1.2265	65.3248	2.1615	138.8192	-0.0592	0.0182	-0.0073	-0.0462	0.0165	0.9585
9.1643	-41.7752	732.2135	26.9868	-283.3693	-36.1972	805.5969	-8.4063	131.3297	0.51135	53.2742	3.7285	113.649	-0.0592	0.0182	-0.0073	-0.0462	0.0165	0.9585
